# xmcd
#
# Track frame offsets:
#	150
#	10352
#	22148
#	42708
#	56549
#	71486
#	84602
#	98859
#	115902
#	133518
#	142995
#	154536
#
# Disc length: 2254 seconds
# Revision: 2
# Processed by: cddbd v1.5.2PL0 Copyright (c) Steve Scherf et al.
# Submitted via: dBpowerAMP V12.0
#
DISCID=a208cc0c
DTITLE=David Wilcox - Boy In The Boat
DYEAR=2007
DGENRE=Blues
TTITLE0=Drop The Pressure
TTITLE1=Pistol Packin' Mama
TTITLE2=Catman
TTITLE3=Step It Up
TTITLE4=Shuckin' Sugar
TTITLE5=Professional Victim
TTITLE6=Bend a Little
TTITLE7=Natural Born Lover
TTITLE8=The Groove
TTITLE9=Feel Like Shit
TTITLE10=Flip Flop and Fly
TTITLE11=Buddy Boy's Blues
EXTD=
EXTT0=
EXTT1=
EXTT2=
EXTT3=
EXTT4=
EXTT5=
EXTT6=
EXTT7=
EXTT8=
EXTT9=
EXTT10=
EXTT11=
PLAYORDER=
